<?xml version="1.0" standalone="no"?>
<!DOCTYPE svg PUBLIC "-//W3C//DTD SVG 20010904//EN"
 "http://www.w3.org/TR/2001/REC-SVG-20010904/DTD/svg10.dtd">
<svg version="1.0" xmlns="http://www.w3.org/2000/svg"
 width="36.000000pt" height="36.000000pt" viewBox="0 0 36.000000 36.000000"
 preserveAspectRatio="xMidYMid meet">

<g transform="translate(0.000000,36.000000) scale(0.100000,-0.100000)"
fill="#000000" stroke="none">
<path d="M83 348 c-13 -6 -25 -19 -28 -29 -4 -12 -16 -19 -31 -19 -17 0 -24
-5 -24 -20 0 -15 7 -20 24 -20 15 0 27 -7 31 -19 9 -30 59 -46 95 -31 16 7 32
21 35 31 6 17 17 19 91 19 77 0 84 2 84 20 0 18 -7 20 -84 20 -74 0 -85 2 -91
18 -5 19 -45 43 -68 41 -7 0 -22 -5 -34 -11z m67 -43 c26 -32 -13 -81 -47 -59
-23 14 -28 41 -13 59 16 19 44 19 60 0z"/>
<path d="M203 148 c-13 -6 -25 -19 -28 -29 -6 -17 -17 -19 -91 -19 -77 0 -84
-2 -84 -20 0 -18 7 -20 84 -20 74 0 85 -2 91 -19 9 -30 59 -46 95 -31 16 7 32
21 35 31 4 12 16 19 31 19 17 0 24 5 24 20 0 15 -7 20 -24 20 -15 0 -27 7 -31
18 -5 19 -45 43 -68 41 -7 0 -22 -5 -34 -11z m67 -43 c26 -32 -13 -81 -47 -59
-10 6 -19 19 -21 28 -8 38 43 61 68 31z"/>
</g>
</svg>
